<?xml version="1.0" encoding="UTF-8"?>
<svg xmlns="http://www.w3.org/2000/svg" xmlns:xlink="http://www.w3.org/1999/xlink"
     width="400" height="400" viewBox="-1.1 -1.1 2.2 2.2">
<defs>
<clipPath id="disc-clip">
<circle cx="0" cy="0" r="1" />
</clipPath>
</defs>
<use xlink:href="#disc-clip" />
<g transform="scale(1, -1)">
<rect x="-1.1" y="-1.1" width="2.2" height="2.2" fill="white" />
<g clip-path="url(#disc-clip)">
<circle cx="0" cy="0" r="1" stroke="gray" stroke-width="0.01" fill="none" />
<path d="M0.09900990099009821,0.009900990099008133 A9.316949906249121,9.316949906249121,0,0,0,0.4411764705882373,0.264705882352942 A0.8469954460226471,0.8469954460226471,0,0,0,0.49773755656108587,0.5475113122171946 A0.45454545454545436,0.45454545454545436,0,0,0,0.3179190751445087,0.5664739884393064 A1.7469281074217111,1.7469281074217111,0,0,0,0.044247787610619316,0.3362831858407078 A5.0,5.0,0,0,1,0.09900990099009821,0.009900990099010576 Z" fill="#a8d5ba" stroke="none" />
<path d="M0.10721023713788913,0.03192992376283321 A7.559006153777552,7.559006153777552,0,0,0,0.43210691420142666,0.26961530339482476 A0.8296897301902882,0.8296897301902882,0,0,0,0.4889962781248727,0.5409285270865251 A0.4495781327925419,0.4495781327925419,0,0,0,0.3200754192867362,0.5581982537416988 A1.6743425327788353,1.6743425327788353,0,0,0,0.05616010085130174,0.33102543212885016 A5.716156586091495,5.716156586091495,0,0,1,0.10721023713789002,0.03192992376283299 L0.09088644599186768,-0.0122084032926143 A4.445781948255197,4.445781948255197,0,0,0,0.032419953588256334,0.34163921809546205 A1.8272857865245375,1.8272857865245375,0,0,1,0.3158998545887768,0.5746632304253918 A0.45991435126778485,0.45991435126778485,0,0,1,0.5061405864250083,0.5539246597114769 A0.8655908427419509,0.8655908427419509,0,0,1,0.4502385813277481,0.25994401871868045 A12.150234589177265,12.150234589177265,0,0,1,0.09088644599186058,-0.012208403292618186 Z" fill="#333333" stroke="none" />
</g>
</g>
</svg>